<mxfile host="app.diagrams.net" modified="2023-12-25T18:25:01.275Z" agent="Mozilla/5.0 (X11; Linux x86_64; rv:121.0) Gecko/20100101 Firefox/121.0" etag="6ij4sfKvqdl-cm8v2ckA" version="22.1.11" type="github">
  <diagram name="Page-1" id="_PURqj4e6AsZEApuIh84">
    <mxGraphModel dx="966" dy="509" grid="0" gridSize="10" guides="1" tooltips="1" connect="1" arrows="1" fold="1" page="1" pageScale="1" pageWidth="850" pageHeight="1100" math="0" shadow="0">
      <root>
        <mxCell id="0" />
        <mxCell id="1" parent="0" />
        <mxCell id="u8Ky7mV8vNOv21Y6Ao_Y-1" value="База данных" style="html=1;dropTarget=0;whiteSpace=wrap;" vertex="1" parent="1">
          <mxGeometry x="580" y="180" width="180" height="90" as="geometry" />
        </mxCell>
        <mxCell id="u8Ky7mV8vNOv21Y6Ao_Y-2" value="" style="shape=module;jettyWidth=8;jettyHeight=4;" vertex="1" parent="u8Ky7mV8vNOv21Y6Ao_Y-1">
          <mxGeometry x="1" width="20" height="20" relative="1" as="geometry">
            <mxPoint x="-27" y="7" as="offset" />
          </mxGeometry>
        </mxCell>
        <mxCell id="u8Ky7mV8vNOv21Y6Ao_Y-3" value="Веб-сайт" style="html=1;dropTarget=0;whiteSpace=wrap;" vertex="1" parent="1">
          <mxGeometry x="180" y="400" width="180" height="90" as="geometry" />
        </mxCell>
        <mxCell id="u8Ky7mV8vNOv21Y6Ao_Y-4" value="" style="shape=module;jettyWidth=8;jettyHeight=4;" vertex="1" parent="u8Ky7mV8vNOv21Y6Ao_Y-3">
          <mxGeometry x="1" width="20" height="20" relative="1" as="geometry">
            <mxPoint x="-27" y="7" as="offset" />
          </mxGeometry>
        </mxCell>
        <mxCell id="u8Ky7mV8vNOv21Y6Ao_Y-5" value="API-сервер" style="html=1;dropTarget=0;whiteSpace=wrap;" vertex="1" parent="1">
          <mxGeometry x="590" y="400" width="180" height="90" as="geometry" />
        </mxCell>
        <mxCell id="u8Ky7mV8vNOv21Y6Ao_Y-6" value="" style="shape=module;jettyWidth=8;jettyHeight=4;" vertex="1" parent="u8Ky7mV8vNOv21Y6Ao_Y-5">
          <mxGeometry x="1" width="20" height="20" relative="1" as="geometry">
            <mxPoint x="-27" y="7" as="offset" />
          </mxGeometry>
        </mxCell>
        <mxCell id="u8Ky7mV8vNOv21Y6Ao_Y-9" value="" style="ellipse;whiteSpace=wrap;html=1;align=center;aspect=fixed;fillColor=none;strokeColor=none;resizable=0;perimeter=centerPerimeter;rotatable=0;allowArrows=0;points=[];outlineConnect=1;" vertex="1" parent="1">
          <mxGeometry x="485" y="280" width="10" height="10" as="geometry" />
        </mxCell>
        <mxCell id="u8Ky7mV8vNOv21Y6Ao_Y-10" value="" style="whiteSpace=wrap;html=1;aspect=fixed;fillColor=#dae8fc;strokeColor=#6c8ebf;" vertex="1" parent="1">
          <mxGeometry x="360" y="420" width="20" height="20" as="geometry" />
        </mxCell>
        <mxCell id="u8Ky7mV8vNOv21Y6Ao_Y-11" value="" style="whiteSpace=wrap;html=1;aspect=fixed;fillColor=#dae8fc;strokeColor=#6c8ebf;" vertex="1" parent="1">
          <mxGeometry x="570" y="420" width="20" height="20" as="geometry" />
        </mxCell>
        <mxCell id="u8Ky7mV8vNOv21Y6Ao_Y-12" value="" style="rounded=0;orthogonalLoop=1;jettySize=auto;html=1;endArrow=halfCircle;endFill=0;endSize=6;strokeWidth=1;sketch=0;exitX=0;exitY=0.5;exitDx=0;exitDy=0;" edge="1" parent="1" source="u8Ky7mV8vNOv21Y6Ao_Y-11">
          <mxGeometry relative="1" as="geometry">
            <mxPoint x="450" y="429.89" as="sourcePoint" />
            <mxPoint x="470" y="429.89" as="targetPoint" />
          </mxGeometry>
        </mxCell>
        <mxCell id="u8Ky7mV8vNOv21Y6Ao_Y-13" value="" style="rounded=0;orthogonalLoop=1;jettySize=auto;html=1;endArrow=oval;endFill=0;sketch=0;sourcePerimeterSpacing=0;targetPerimeterSpacing=0;endSize=10;exitX=1;exitY=0.5;exitDx=0;exitDy=0;" edge="1" parent="1" source="u8Ky7mV8vNOv21Y6Ao_Y-10">
          <mxGeometry relative="1" as="geometry">
            <mxPoint x="496" y="429.89" as="sourcePoint" />
            <mxPoint x="470" y="429.89" as="targetPoint" />
          </mxGeometry>
        </mxCell>
        <mxCell id="u8Ky7mV8vNOv21Y6Ao_Y-14" value="" style="ellipse;whiteSpace=wrap;html=1;align=center;aspect=fixed;fillColor=none;strokeColor=none;resizable=0;perimeter=centerPerimeter;rotatable=0;allowArrows=0;points=[];outlineConnect=1;" vertex="1" parent="1">
          <mxGeometry x="440" y="425" width="10" height="10" as="geometry" />
        </mxCell>
        <mxCell id="u8Ky7mV8vNOv21Y6Ao_Y-18" value="" style="whiteSpace=wrap;html=1;aspect=fixed;fillColor=#dae8fc;strokeColor=#6c8ebf;" vertex="1" parent="1">
          <mxGeometry x="660" y="270" width="20" height="20" as="geometry" />
        </mxCell>
        <mxCell id="u8Ky7mV8vNOv21Y6Ao_Y-19" value="" style="whiteSpace=wrap;html=1;aspect=fixed;fillColor=#dae8fc;strokeColor=#6c8ebf;" vertex="1" parent="1">
          <mxGeometry x="660" y="380" width="20" height="20" as="geometry" />
        </mxCell>
        <mxCell id="u8Ky7mV8vNOv21Y6Ao_Y-20" value="" style="rounded=0;orthogonalLoop=1;jettySize=auto;html=1;endArrow=halfCircle;endFill=0;endSize=6;strokeWidth=1;sketch=0;exitX=0.5;exitY=1;exitDx=0;exitDy=0;" edge="1" target="u8Ky7mV8vNOv21Y6Ao_Y-22" parent="1" source="u8Ky7mV8vNOv21Y6Ao_Y-18">
          <mxGeometry relative="1" as="geometry">
            <mxPoint x="690" y="335" as="sourcePoint" />
          </mxGeometry>
        </mxCell>
        <mxCell id="u8Ky7mV8vNOv21Y6Ao_Y-21" value="" style="rounded=0;orthogonalLoop=1;jettySize=auto;html=1;endArrow=oval;endFill=0;sketch=0;sourcePerimeterSpacing=0;targetPerimeterSpacing=0;endSize=10;exitX=0.5;exitY=0;exitDx=0;exitDy=0;" edge="1" target="u8Ky7mV8vNOv21Y6Ao_Y-22" parent="1" source="u8Ky7mV8vNOv21Y6Ao_Y-19">
          <mxGeometry relative="1" as="geometry">
            <mxPoint x="650" y="335" as="sourcePoint" />
          </mxGeometry>
        </mxCell>
        <mxCell id="u8Ky7mV8vNOv21Y6Ao_Y-22" value="" style="ellipse;whiteSpace=wrap;html=1;align=center;aspect=fixed;fillColor=none;strokeColor=none;resizable=0;perimeter=centerPerimeter;rotatable=0;allowArrows=0;points=[];outlineConnect=1;" vertex="1" parent="1">
          <mxGeometry x="665" y="330" width="10" height="10" as="geometry" />
        </mxCell>
      </root>
    </mxGraphModel>
  </diagram>
</mxfile>
